<svg width="327" height="300" viewBox="0 0 329 300" fill="none" xmlns="http://www.w3.org/2000/svg">
<g clip-path="url(#clip0_6_2)">
<path opacity="0.5" d="M320.613 0.5H8.61328C4.47115 0.5 1.11328 3.85786 1.11328 8V292C1.11328 296.142 4.47115 299.5 8.61328 299.5H320.613C324.755 299.5 328.113 296.142 328.113 292V8C328.113 3.85786 324.755 0.5 320.613 0.5Z" fill="#2C2E3B" stroke="#75798E" stroke-dasharray="5 5"/>
<path d="M162.061 101.475V95.4746L160.061 97.4746" stroke="#8C8E94" stroke-width="1.5" stroke-linecap="round" stroke-linejoin="round"/>
<path d="M162.061 95.4746L164.061 97.4746" stroke="#8C8E94" stroke-width="1.5" stroke-linecap="round" stroke-linejoin="round"/>
<path d="M175.061 94.4746V99.4746C175.061 104.475 173.061 106.475 168.061 106.475H162.061C157.061 106.475 155.061 104.475 155.061 99.4746V93.4746C155.061 88.4746 157.061 86.4746 162.061 86.4746H167.061" stroke="#8C8E94" stroke-width="1.5" stroke-linecap="round" stroke-linejoin="round"/>
<path d="M175.061 94.4746H171.061C168.061 94.4746 167.061 93.4746 167.061 90.4746V86.4746L175.061 94.4746Z" stroke="#8C8E94" stroke-width="1.5" stroke-linecap="round" stroke-linejoin="round"/>
</g>
<defs>
<clipPath id="clip0_6_2">
<rect width="327" height="300" fill="white"/>
</clipPath>
</defs>
</svg>
