<svg width="375" height="636" viewBox="0 0 375 636" fill="none" xmlns="http://www.w3.org/2000/svg">
<mask id="mask0_525_9692" style="mask-type:alpha" maskUnits="userSpaceOnUse" x="0" y="0" width="375" height="636">
<rect y="0.867188" width="375" height="635.133" fill="#081225"/>
</mask>
<g>
<path d="M100.368 58.4772C100.601 57.0897 100.742 55.6883 100.791 54.2822C100.811 47.0852 98.4401 40.0853 94.0505 34.3817C89.661 28.6782 83.5014 24.5941 76.5391 22.7707C69.5768 20.9473 62.2061 21.4879 55.5843 24.3075C48.9625 27.1272 43.4647 32.0663 39.9542 38.3492C37.8582 37.5477 35.6436 37.1001 33.4008 37.0247C30.6867 37.0241 27.999 37.5581 25.4913 38.5963C22.9835 39.6345 20.7049 41.1566 18.7855 43.0756C16.8661 44.9945 15.3435 47.2728 14.3047 49.7803C13.2659 52.2877 12.7312 54.9753 12.7312 57.6894C12.7312 57.8076 12.7952 57.9061 12.8001 58.0193C7.5244 58.4028 2.6045 60.8226 -0.919719 64.7672C-4.44394 68.7119 -6.29631 73.8722 -6.08533 79.1577C-5.87435 84.4431 -3.61654 89.4394 0.210884 93.0906C4.03831 96.7417 9.13543 98.7617 14.4249 98.7234H96.483C101.924 98.7234 107.143 96.5618 110.991 92.7141C114.838 88.8665 117 83.6479 117 78.2064C116.958 73.4959 115.274 68.9476 112.238 65.346C109.201 61.7443 105.003 59.3151 100.368 58.4772Z" fill="#081225"/>
<path d="M157.219 59.0268C157.378 58.0779 157.475 57.1195 157.509 56.1579C157.522 51.2359 155.901 46.4488 152.899 42.5482C149.897 38.6476 145.685 35.8546 140.923 34.6076C136.162 33.3606 131.121 33.7303 126.592 35.6586C122.064 37.5869 118.304 40.9647 115.903 45.2615C114.47 44.7134 112.955 44.4072 111.421 44.3557C109.565 44.3553 107.727 44.7205 106.012 45.4305C104.297 46.1405 102.739 47.1814 101.426 48.4938C100.113 49.8061 99.0722 51.3642 98.3618 53.079C97.6514 54.7939 97.2857 56.6319 97.2857 58.488C97.2857 58.5688 97.3295 58.6362 97.3328 58.7136C93.7249 58.9759 90.3602 60.6308 87.95 63.3284C85.5399 66.0261 84.2731 69.5552 84.4174 73.1699C84.5616 76.7845 86.1057 80.2014 88.7232 82.6984C91.3408 85.1954 94.8266 86.5768 98.444 86.5506H154.562C158.284 86.5506 161.853 85.0723 164.484 82.4409C167.115 79.8096 168.594 76.2407 168.594 72.5193C168.565 69.2979 167.413 66.1873 165.337 63.7242C163.26 61.2611 160.389 59.5998 157.219 59.0268Z" fill="#081225"/>
<path d="M143.191 82.0446C142.958 80.6538 142.816 79.2491 142.767 77.8397C142.747 70.6256 145.123 63.6092 149.523 57.8922C153.923 52.1752 160.097 48.0814 167.076 46.2537C174.055 44.4259 181.443 44.9678 188.08 47.7941C194.718 50.6205 200.229 55.5712 203.747 61.869C205.848 61.0656 208.068 60.6169 210.316 60.5414C213.037 60.5408 215.731 61.0761 218.245 62.1167C220.758 63.1574 223.042 64.683 224.966 66.6065C226.89 68.53 228.416 70.8137 229.458 73.3271C230.499 75.8405 231.035 78.5344 231.035 81.255C231.035 81.3734 230.971 81.4721 230.966 81.5856C236.254 81.97 241.185 84.3955 244.718 88.3495C248.251 92.3034 250.107 97.476 249.896 102.774C249.684 108.072 247.421 113.08 243.585 116.74C239.748 120.4 234.639 122.424 229.337 122.386H147.085C141.631 122.386 136.4 120.219 132.543 116.362C128.686 112.506 126.52 107.275 126.52 101.82C126.561 97.0988 128.25 92.5398 131.293 88.9296C134.337 85.3194 138.544 82.8845 143.191 82.0446Z" fill="#081225"/>
<path d="M257.811 80.4245C257.939 79.6619 258.017 78.8917 258.044 78.1189C258.055 74.1631 256.752 70.3158 254.339 67.181C251.927 64.0462 248.541 61.8015 244.715 60.7993C240.888 59.7971 236.837 60.0942 233.197 61.644C229.558 63.1937 226.536 65.9084 224.606 69.3616C223.454 68.9211 222.237 68.6751 221.005 68.6337C219.513 68.6333 218.036 68.9268 216.657 69.4975C215.279 70.0681 214.027 70.9047 212.972 71.9594C211.917 73.0141 211.08 74.2663 210.509 75.6445C209.938 77.0226 209.644 78.4998 209.644 79.9916C209.644 80.0565 209.679 80.1106 209.682 80.1729C206.782 80.3836 204.078 81.7136 202.141 83.8817C200.204 86.0498 199.186 88.8861 199.302 91.7911C199.418 94.6961 200.659 97.4422 202.762 99.449C204.866 101.456 207.668 102.566 210.575 102.545H255.676C258.667 102.545 261.535 101.357 263.65 99.2421C265.765 97.1273 266.953 94.259 266.953 91.2682C266.93 88.6792 266.004 86.1793 264.335 84.1998C262.667 82.2202 260.359 80.8851 257.811 80.4245Z" fill="#081225"/>
<path d="M259.555 85.1195C259.355 83.9783 259.233 82.8258 259.191 81.6693C259.174 75.75 261.21 69.9929 264.981 65.302C268.751 60.6111 274.041 57.2521 280.021 55.7525C286.001 54.2528 292.331 54.6974 298.019 57.0165C303.706 59.3355 308.428 63.3977 311.443 68.5651C313.243 67.9059 315.146 67.5378 317.072 67.4758C319.403 67.4753 321.711 67.9145 323.865 68.7684C326.019 69.6222 327.976 70.8741 329.625 72.4523C331.273 74.0306 332.581 75.9044 333.473 77.9667C334.366 80.0289 334.825 82.2393 334.825 84.4716C334.825 84.5688 334.77 84.6498 334.766 84.7429C339.297 85.0583 343.522 87.0485 346.549 90.2928C349.576 93.5371 351.167 97.7813 350.986 102.128C350.805 106.475 348.866 110.585 345.578 113.587C342.291 116.59 337.913 118.252 333.37 118.22H262.891C258.218 118.22 253.736 116.442 250.431 113.278C247.126 110.113 245.27 105.821 245.27 101.346C245.305 97.4717 246.752 93.731 249.36 90.7688C251.968 87.8066 255.573 85.8086 259.555 85.1195Z" fill="#081225"/>
<path d="M369.189 89.4099C369.356 88.4166 369.457 87.4134 369.493 86.4068C369.507 81.2546 367.809 76.2436 364.667 72.1606C361.525 68.0775 357.115 65.1538 352.131 63.8485C347.147 62.5432 341.87 62.9301 337.13 64.9487C332.39 66.9672 328.454 70.503 325.941 75.0008C324.44 74.427 322.855 74.1066 321.249 74.0526C319.306 74.0522 317.382 74.4345 315.587 75.1777C313.792 75.9209 312.161 77.0105 310.787 78.3842C309.413 79.758 308.323 81.3889 307.579 83.184C306.835 84.979 306.453 86.903 306.453 88.846C306.453 88.9305 306.498 89.001 306.502 89.0821C302.725 89.3566 299.203 91.0889 296.68 93.9128C294.157 96.7366 292.831 100.431 292.982 104.215C293.133 107.998 294.75 111.575 297.49 114.189C300.23 116.803 303.878 118.249 307.665 118.221H366.408C370.304 118.221 374.04 116.674 376.794 113.919C379.549 111.165 381.096 107.429 381.096 103.534C381.066 100.161 379.86 96.9054 377.687 94.3271C375.513 91.7487 372.508 90.0097 369.189 89.4099Z" fill="#081225"/>
<rect y="80.6934" width="375" height="555.307" fill="#081225"/>
</g>
</svg>
