<svg width="327" height="57" viewBox="0 0 327 57" fill="none" xmlns="http://www.w3.org/2000/svg">
<rect y="23" width="4" height="11" rx="2" fill="#D90F48"/>
<rect x="9.5" y="15" width="4" height="27" rx="2" fill="#D90F48"/>
<rect x="19" y="20" width="4" height="17" rx="2" fill="#D90F48"/>
<rect x="28.5" y="11" width="4" height="35" rx="2" fill="#D90F48"/>
<rect x="38" width="4" height="57" rx="2" fill="#D90F48"/>
<rect x="47.5" y="11" width="4" height="35" rx="2" fill="#D90F48"/>
<rect x="57" y="15" width="4" height="27" rx="2" fill="#D90F48"/>
<rect x="66.5" y="20" width="4" height="17" rx="2" fill="#D90F48"/>
<rect x="76" y="8" width="4" height="41" rx="2" fill="#D90F48"/>
<rect x="85.5" width="4" height="57" rx="2" fill="#D90F48"/>
<rect x="95" y="12" width="4" height="33" rx="2" fill="#D90F48"/>
<rect x="104.5" y="15" width="4" height="27" rx="2" fill="#969AA0"/>
<rect x="114" y="20" width="4" height="17" rx="2" fill="#969AA0"/>
<rect x="123.5" y="8" width="4" height="41" rx="2" fill="#969AA0"/>
<rect x="133" width="4" height="57" rx="2" fill="#969AA0"/>
<rect x="142.5" y="8" width="4" height="41" rx="2" fill="#969AA0"/>
<rect x="152" y="11" width="4" height="35" rx="2" fill="#969AA0"/>
<rect x="161.5" y="15" width="4" height="27" rx="2" fill="#969AA0"/>
<rect x="171" y="8" width="4" height="41" rx="2" fill="#969AA0"/>
<rect x="180.5" width="4" height="57" rx="2" fill="#969AA0"/>
<rect x="190" y="11" width="4" height="35" rx="2" fill="#969AA0"/>
<rect x="199.5" y="15" width="4" height="27" rx="2" fill="#969AA0"/>
<rect x="209" y="20" width="4" height="17" rx="2" fill="#969AA0"/>
<rect x="218.5" y="15" width="4" height="27" rx="2" fill="#969AA0"/>
<rect x="228" y="8" width="4" height="41" rx="2" fill="#969AA0"/>
<rect x="237.5" width="4" height="57" rx="2" fill="#969AA0"/>
<rect x="247" y="11" width="4" height="35" rx="2" fill="#969AA0"/>
<rect x="256.5" y="15" width="4" height="27" rx="2" fill="#969AA0"/>
<rect x="266" y="20" width="4" height="17" rx="2" fill="#969AA0"/>
<rect x="275.5" y="20" width="4" height="17" rx="2" fill="#969AA0"/>
<rect x="285" y="11" width="4" height="35" rx="2" fill="#969AA0"/>
<rect x="294.5" width="4" height="57" rx="2" fill="#969AA0"/>
<rect x="304" y="11" width="4" height="35" rx="2" fill="#969AA0"/>
<rect x="313.5" y="15" width="4" height="27" rx="2" fill="#969AA0"/>
<rect x="323" y="23" width="4" height="11" rx="2" fill="#969AA0"/>
</svg>
