<svg width="25" height="25" viewBox="0 0 25 25" fill="none" xmlns="http://www.w3.org/2000/svg">
<path d="M17.6133 18.9493H13.6133L9.16327 21.9092C8.50327 22.3492 7.61328 21.8793 7.61328 21.0793V18.9493C4.61328 18.9493 2.61328 16.9493 2.61328 13.9493V7.94922C2.61328 4.94922 4.61328 2.94922 7.61328 2.94922H17.6133C20.6133 2.94922 22.6133 4.94922 22.6133 7.94922V13.9493C22.6133 16.9493 20.6133 18.9493 17.6133 18.9493Z" stroke="#AC24C0" stroke-width="1.5" stroke-miterlimit="10" stroke-linecap="round" stroke-linejoin="round"/>
<path d="M12.6131 11.8789V11.6689C12.6131 10.9889 13.0331 10.6289 13.4531 10.3389C13.8631 10.0589 14.2731 9.69894 14.2731 9.03894C14.2731 8.11894 13.5331 7.37891 12.6131 7.37891C11.6931 7.37891 10.9531 8.11894 10.9531 9.03894" stroke="#AC24C0" stroke-width="1.5" stroke-linecap="round" stroke-linejoin="round"/>
<path d="M12.6088 14.2695H12.6178" stroke="#AC24C0" stroke-width="1.5" stroke-linecap="round" stroke-linejoin="round"/>
</svg>
