<svg width="24" height="25" viewBox="0 0 24 25" fill="none" xmlns="http://www.w3.org/2000/svg">
<path d="M19.3009 8.5484V13.6984C19.3009 16.7784 17.5409 18.0984 14.9009 18.0984H6.11093C5.66093 18.0984 5.23093 18.0584 4.83093 17.9684C4.58093 17.9284 4.34094 17.8584 4.12094 17.7784C2.62094 17.2184 1.71094 15.9184 1.71094 13.6984V8.5484C1.71094 5.4684 3.47093 4.14844 6.11093 4.14844H14.9009C17.1409 4.14844 18.7509 5.09843 19.1809 7.26843C19.2509 7.66843 19.3009 8.0784 19.3009 8.5484Z" stroke="#AC24C0" stroke-width="1.5" stroke-miterlimit="10" stroke-linecap="round" stroke-linejoin="round"/>
<path d="M22.302 11.5495V16.6995C22.302 19.7795 20.542 21.0995 17.902 21.0995H9.11203C8.37203 21.0995 7.70204 20.9995 7.12204 20.7795C5.93204 20.3395 5.12203 19.4295 4.83203 17.9695C5.23203 18.0595 5.66203 18.0995 6.11203 18.0995H14.902C17.542 18.0995 19.302 16.7795 19.302 13.6995V8.5495C19.302 8.0795 19.262 7.65953 19.182 7.26953C21.082 7.66953 22.302 9.0095 22.302 11.5495Z" stroke="#AC24C0" stroke-width="1.5" stroke-miterlimit="10" stroke-linecap="round" stroke-linejoin="round"/>
<path d="M10.4994 13.7683C11.9574 13.7683 13.1394 12.5863 13.1394 11.1283C13.1394 9.67026 11.9574 8.48828 10.4994 8.48828C9.04136 8.48828 7.85938 9.67026 7.85938 11.1283C7.85938 12.5863 9.04136 13.7683 10.4994 13.7683Z" stroke="#AC24C0" stroke-width="1.5" stroke-miterlimit="10" stroke-linecap="round" stroke-linejoin="round"/>
<path d="M4.78125 8.92773V13.3278" stroke="#AC24C0" stroke-width="1.5" stroke-miterlimit="10" stroke-linecap="round" stroke-linejoin="round"/>
<path d="M16.2227 8.92969V13.3297" stroke="#AC24C0" stroke-width="1.5" stroke-miterlimit="10" stroke-linecap="round" stroke-linejoin="round"/>
</svg>
