<svg width="25" height="24" viewBox="0 0 25 24" fill="none" xmlns="http://www.w3.org/2000/svg">
<path d="M22.5 13V17C22.5 20.5 20.5 22 17.5 22H7.5C4.5 22 2.5 20.5 2.5 17V13C2.5 10.35 3.65 8.85003 5.5 8.28003C6.1 8.09003 6.77 8 7.5 8H17.5C18.23 8 18.9 8.09003 19.5 8.28003C21.35 8.85003 22.5 10.35 22.5 13Z" stroke="#DBE6FE" stroke-width="1.5" stroke-miterlimit="10" stroke-linecap="round" stroke-linejoin="round"/>
<path d="M19.5 7V8.28003C18.9 8.09003 18.23 8 17.5 8H7.5C6.77 8 6.1 8.09003 5.5 8.28003V7C5.5 5.9 6.4 5 7.5 5H17.5C18.6 5 19.5 5.9 19.5 7Z" stroke="#DBE6FE" stroke-width="1.5" stroke-miterlimit="10" stroke-linecap="round" stroke-linejoin="round"/>
<path d="M16.5 3.51001V5H8.5V3.51001C8.5 2.68001 9.18001 2 10.01 2H14.99C15.82 2 16.5 2.68001 16.5 3.51001Z" stroke="#DBE6FE" stroke-width="1.5" stroke-miterlimit="10" stroke-linecap="round" stroke-linejoin="round"/>
<path d="M9.57001 19.4486C10.299 19.4486 10.89 18.8576 10.89 18.1286C10.89 17.3996 10.299 16.8086 9.57001 16.8086C8.84099 16.8086 8.25 17.3996 8.25 18.1286C8.25 18.8576 8.84099 19.4486 9.57001 19.4486Z" stroke="#DBE6FE" stroke-width="1.5" stroke-linecap="round" stroke-linejoin="round"/>
<path d="M15.7504 17.2491V12.0791C15.7504 10.9791 15.0604 10.8191 14.3604 11.0191L11.7104 11.7391C11.2304 11.8691 10.9004 12.2491 10.9004 12.7991V13.7191V14.3392V18.1291" stroke="#DBE6FE" stroke-width="1.5" stroke-linecap="round" stroke-linejoin="round"/>
<path d="M14.4294 18.5697C15.1584 18.5697 15.7494 17.9787 15.7494 17.2497C15.7494 16.5207 15.1584 15.9297 14.4294 15.9297C13.7004 15.9297 13.1094 16.5207 13.1094 17.2497C13.1094 17.9787 13.7004 18.5697 14.4294 18.5697Z" stroke="#DBE6FE" stroke-width="1.5" stroke-linecap="round" stroke-linejoin="round"/>
<path d="M10.9004 14.3492L15.7504 13.0293" stroke="#DBE6FE" stroke-width="1.5" stroke-linecap="round" stroke-linejoin="round"/>
</svg>
