<svg width="25" height="24" viewBox="0 0 25 24" fill="none" xmlns="http://www.w3.org/2000/svg">
<path d="M6.78016 21.9998C8.50328 21.9998 9.90016 20.6029 9.90016 18.8798C9.90016 17.1566 8.50328 15.7598 6.78016 15.7598C5.05703 15.7598 3.66016 17.1566 3.66016 18.8798C3.66016 20.6029 5.05703 21.9998 6.78016 21.9998Z" stroke="#DBE6FE" stroke-width="1.5" stroke-linecap="round" stroke-linejoin="round"/>
<path d="M21.3404 16.8003V4.60034C21.3404 2.00034 19.7104 1.64034 18.0604 2.09034L11.8204 3.79034C10.6804 4.10034 9.90039 5.00034 9.90039 6.30034V8.47034V9.93034V18.8703" stroke="#DBE6FE" stroke-width="1.5" stroke-linecap="round" stroke-linejoin="round"/>
<path d="M18.2196 19.9197C19.9427 19.9197 21.3396 18.5228 21.3396 16.7997C21.3396 15.0766 19.9427 13.6797 18.2196 13.6797C16.4965 13.6797 15.0996 15.0766 15.0996 16.7997C15.0996 18.5228 16.4965 19.9197 18.2196 19.9197Z" stroke="#DBE6FE" stroke-width="1.5" stroke-linecap="round" stroke-linejoin="round"/>
<path d="M9.90039 9.52039L21.3404 6.40039" stroke="#DBE6FE" stroke-width="1.5" stroke-linecap="round" stroke-linejoin="round"/>
</svg>
