<svg width="24" height="14" viewBox="0 0 24 14" fill="none" xmlns="http://www.w3.org/2000/svg">
<path d="M10.206 6.99968L1.5 1.94918V12.0502L10.206 6.99968ZM11.394 5.95568C11.5779 6.06097 11.7307 6.21297 11.837 6.39629C11.9433 6.57962 11.9993 6.78777 11.9993 6.99968C11.9993 7.21159 11.9433 7.41974 11.837 7.60307C11.7307 7.78639 11.5779 7.93839 11.394 8.04368L1.8495 13.5817C1.0695 14.0347 0 13.5172 0 12.5377V1.46168C0 0.48218 1.0695 -0.0353201 1.8495 0.41768L11.394 5.95568Z" fill="#DBE6FE"/>
<path d="M22.206 6.99968L13.5 1.94918V12.0502L22.206 6.99968ZM23.394 5.95568C23.5779 6.06097 23.7307 6.21297 23.837 6.39629C23.9433 6.57962 23.9993 6.78777 23.9993 6.99968C23.9993 7.21159 23.9433 7.41974 23.837 7.60307C23.7307 7.78639 23.5779 7.93839 23.394 8.04368L13.8495 13.5817C13.0695 14.0347 12 13.5172 12 12.5377V1.46168C12 0.48218 13.0695 -0.0353201 13.8495 0.41768L23.394 5.95568Z" fill="#DBE6FE"/>
</svg>
