<svg width="24" height="25" viewBox="0 0 24 25" fill="none" xmlns="http://www.w3.org/2000/svg">
<path d="M17 17.582C19.7614 17.582 22 15.3435 22 12.582C22 9.82061 19.7614 7.58203 17 7.58203C14.2386 7.58203 12 9.82061 12 12.582C12 15.3435 14.2386 17.582 17 17.582Z" stroke="#AC24C0" stroke-width="1.5" stroke-miterlimit="10" stroke-linecap="round" stroke-linejoin="round"/>
<path d="M12 22.582C14.7614 22.582 17 20.3435 17 17.582C17 14.8206 14.7614 12.582 12 12.582C9.23858 12.582 7 14.8206 7 17.582C7 20.3435 9.23858 22.582 12 22.582Z" stroke="#AC24C0" stroke-width="1.5" stroke-miterlimit="10" stroke-linecap="round" stroke-linejoin="round"/>
<path d="M12 12.582C14.7614 12.582 17 10.3435 17 7.58203C17 4.82061 14.7614 2.58203 12 2.58203C9.23858 2.58203 7 4.82061 7 7.58203C7 10.3435 9.23858 12.582 12 12.582Z" stroke="#AC24C0" stroke-width="1.5" stroke-miterlimit="10" stroke-linecap="round" stroke-linejoin="round"/>
<path d="M7 17.582C9.76142 17.582 12 15.3435 12 12.582C12 9.82061 9.76142 7.58203 7 7.58203C4.23858 7.58203 2 9.82061 2 12.582C2 15.3435 4.23858 17.582 7 17.582Z" stroke="#AC24C0" stroke-width="1.5" stroke-miterlimit="10" stroke-linecap="round" stroke-linejoin="round"/>
</svg>
