<svg width="24" height="14" viewBox="0 0 24 14" fill="none" xmlns="http://www.w3.org/2000/svg">
<path d="M13.794 7.00032L22.5 12.0508L22.5 1.94982L13.794 7.00032ZM12.606 8.04432C12.4221 7.93903 12.2693 7.78703 12.163 7.60371C12.0567 7.42038 12.0007 7.21223 12.0007 7.00032C12.0007 6.78841 12.0567 6.58026 12.163 6.39694C12.2693 6.21361 12.4221 6.06161 12.606 5.95632L22.1505 0.418321C22.9305 -0.0346793 24 0.48282 24 1.46232L24 12.5383C24 13.5178 22.9305 14.0353 22.1505 13.5823L12.606 8.04432Z" fill="#DBE6FE"/>
<path d="M1.794 7.00032L10.5 12.0508L10.5 1.94982L1.794 7.00032ZM0.606 8.04432C0.422099 7.93903 0.269271 7.78703 0.162984 7.60371C0.0566982 7.42038 0.000723267 7.21223 0.000723249 7.00032C0.00072323 6.78841 0.0566982 6.58026 0.162984 6.39694C0.269271 6.21361 0.422098 6.06161 0.606 5.95632L10.1505 0.418321C10.9305 -0.0346793 12 0.48282 12 1.46232L12 12.5383C12 13.5178 10.9305 14.0353 10.1505 13.5823L0.606 8.04432Z" fill="#DBE6FE"/>
</svg>
