<svg width="24" height="25" viewBox="0 0 24 25" fill="none" xmlns="http://www.w3.org/2000/svg">
<path d="M12 15.9102C13.6569 15.9102 15 14.567 15 12.9102C15 11.2533 13.6569 9.91016 12 9.91016C10.3431 9.91016 9 11.2533 9 12.9102C9 14.567 10.3431 15.9102 12 15.9102Z" stroke="#AC24C0" stroke-width="1.5" stroke-miterlimit="10" stroke-linecap="round" stroke-linejoin="round"/>
<path d="M2 13.7896V12.0296C2 10.9896 2.85 10.1296 3.9 10.1296C5.71 10.1296 6.45 8.8496 5.54 7.2796C5.02 6.3796 5.33 5.2096 6.24 4.6896L7.97 3.6996C8.76 3.2296 9.78 3.5096 10.25 4.2996L10.36 4.4896C11.26 6.0596 12.74 6.0596 13.65 4.4896L13.76 4.2996C14.23 3.5096 15.25 3.2296 16.04 3.6996L17.77 4.6896C18.68 5.2096 18.99 6.3796 18.47 7.2796C17.56 8.8496 18.3 10.1296 20.11 10.1296C21.15 10.1296 22.01 10.9796 22.01 12.0296V13.7896C22.01 14.8296 21.16 15.6896 20.11 15.6896C18.3 15.6896 17.56 16.9696 18.47 18.5396C18.99 19.4496 18.68 20.6096 17.77 21.1296L16.04 22.1196C15.25 22.5896 14.23 22.3096 13.76 21.5196L13.65 21.3296C12.75 19.7596 11.27 19.7596 10.36 21.3296L10.25 21.5196C9.78 22.3096 8.76 22.5896 7.97 22.1196L6.24 21.1296C5.33 20.6096 5.02 19.4396 5.54 18.5396C6.45 16.9696 5.71 15.6896 3.9 15.6896C2.85 15.6896 2 14.8296 2 13.7896Z" stroke="#AC24C0" stroke-width="1.5" stroke-miterlimit="10" stroke-linecap="round" stroke-linejoin="round"/>
</svg>
