<svg width="24" height="25" viewBox="0 0 24 25" fill="none" xmlns="http://www.w3.org/2000/svg">
<path d="M18.1394 22.3121C17.2594 22.5721 16.2194 22.6921 14.9994 22.6921H8.99937C7.77937 22.6921 6.73937 22.5721 5.85938 22.3121C6.07937 19.7121 8.74937 17.6621 11.9994 17.6621C15.2494 17.6621 17.9194 19.7121 18.1394 22.3121Z" stroke="#AC24C0" stroke-width="1.5" stroke-linecap="round" stroke-linejoin="round"/>
<path d="M15 2.69141H9C4 2.69141 2 4.69141 2 9.69141V15.6914C2 19.4714 3.14 21.5414 5.86 22.3114C6.08 19.7114 8.75 17.6614 12 17.6614C15.25 17.6614 17.92 19.7114 18.14 22.3114C20.86 21.5414 22 19.4714 22 15.6914V9.69141C22 4.69141 20 2.69141 15 2.69141ZM12 14.8614C10.02 14.8614 8.42 13.2514 8.42 11.2714C8.42 9.29142 10.02 7.69141 12 7.69141C13.98 7.69141 15.58 9.29142 15.58 11.2714C15.58 13.2514 13.98 14.8614 12 14.8614Z" stroke="#AC24C0" stroke-width="1.5" stroke-linecap="round" stroke-linejoin="round"/>
<path d="M15.5799 11.2714C15.5799 13.2514 13.9799 14.8614 11.9999 14.8614C10.0199 14.8614 8.41992 13.2514 8.41992 11.2714C8.41992 9.29142 10.0199 7.69141 11.9999 7.69141C13.9799 7.69141 15.5799 9.29142 15.5799 11.2714Z" stroke="#AC24C0" stroke-width="1.5" stroke-linecap="round" stroke-linejoin="round"/>
</svg>
